HIERARCHY
ROOT hip
{
  OFFSET 0 0 0
  CHANNELS 6 Xposition Yposition Zposition Zrotation Yrotation Xrotation
  JOINT abdomen
  {
    OFFSET 0 20.6881 -0.73152
    CHANNELS 3 Zrotation Xrotation Yrotation
    JOINT chest
    {
      OFFSET 0 11.7043 -0.48768
      CHANNELS 3 Zrotation Xrotation Yrotation
      JOINT neck
      {
        OFFSET 0 22.1894 -2.19456
        CHANNELS 3 Zrotation Xrotation Yrotation
        JOINT head
        {
          OFFSET -0.24384 7.07133 1.2192
          CHANNELS 3 Zrotation Xrotation Yrotation
          JOINT leftEye
          {
            OFFSET 4.14528 8.04674 8.04672
            CHANNELS 3 Zrotation Xrotation Yrotation
            End Site
            {
              OFFSET 1 0 0
            }
          }
          JOINT rightEye
          {
            OFFSET -3.6576 8.04674 8.04672
            CHANNELS 3 Zrotation Xrotation Yrotation
            End Site
            {
              OFFSET 1 0 0
            }
          }
        }
      }
      JOINT rCollar
      {
        OFFSET -2.68224 19.2634 -4.8768
        CHANNELS 3 Zrotation Xrotation Yrotation
        JOINT rShldr
        {
          OFFSET -8.77824 -1.95073 1.46304
          CHANNELS 3 Zrotation Xrotation Yrotation
          JOINT rForeArm
          {
            OFFSET -28.1742 -1.7115 0.48768
            CHANNELS 3 Zrotation Xrotation Yrotation
            JOINT rHand
            {
              OFFSET -22.5879 0.773209 7.07136
              CHANNELS 3 Zrotation Xrotation Yrotation
              JOINT rThumb1
              {
                OFFSET -1.2192 -0.487915 3.41376
                CHANNELS 3 Zrotation Xrotation Yrotation
                JOINT rThumb2
                {
                  OFFSET -3.37035 -0.52449 3.41376
                  CHANNELS 3 Zrotation Xrotation Yrotation
                  End Site
                  {
                    OFFSET -1.78271 -1.18214 1.43049
                  }
                }
              }
              JOINT rIndex1
              {
                OFFSET -7.75947 0.938293 5.60832
                CHANNELS 3 Zrotation Xrotation Yrotation
                JOINT rIndex2
                {
                  OFFSET -2.54057 -0.884171 1.56538
                  CHANNELS 3 Zrotation Xrotation Yrotation
                  End Site
                  {
                    OFFSET -1.62519 -0.234802 1.16502
                  }
                }
              }
              JOINT rMid1
              {
                OFFSET -8.24714 1.18213 3.41376
                CHANNELS 3 Zrotation Xrotation Yrotation
                JOINT rMid2
                {
                  OFFSET -3.10165 -0.590103 1.0647
                  CHANNELS 3 Zrotation Xrotation Yrotation
                  End Site
                  {
                    OFFSET -2.48547 -0.328903 0.83742
                  }
                }
              }
              JOINT rRing1
              {
                OFFSET -8.82822 0.546677 1.51678
                CHANNELS 3 Zrotation Xrotation Yrotation
                JOINT rRing2
                {
                  OFFSET -2.60934 -0.819778 -0.0198488
                  CHANNELS 3 Zrotation Xrotation Yrotation
                  End Site
                  {
                    OFFSET -2.33842 -0.294052 0.168128
                  }
                }
              }
              JOINT rPinky1
              {
                OFFSET -8.27202 -0.0477905 -0.4584
                CHANNELS 3 Zrotation Xrotation Yrotation
                JOINT rPinky2
                {
                  OFFSET -1.82734 -0.647385 -0.700984
                  CHANNELS 3 Zrotation Xrotation Yrotation
                  End Site
                  {
                    OFFSET -1.69225 -0.51767 -0.607171
                  }
                }
              }
            }
          }
        }
      }
      JOINT lCollar
      {
        OFFSET 2.68224 19.2634 -4.8768
        CHANNELS 3 Zrotation Xrotation Yrotation
        JOINT lShldr
        {
          OFFSET 8.77824 -1.95073 1.46304
          CHANNELS 3 Zrotation Xrotation Yrotation
          JOINT lForeArm
          {
            OFFSET 28.1742 -1.7115 0.48768
            CHANNELS 3 Zrotation Xrotation Yrotation
            JOINT lHand
            {
              OFFSET 22.5879 0.773209 7.07136
              CHANNELS 3 Zrotation Xrotation Yrotation
              JOINT lThumb1
              {
                OFFSET 1.2192 -0.487915 3.41376
                CHANNELS 3 Zrotation Xrotation Yrotation
                JOINT lThumb2
                {
                  OFFSET 3.37035 -0.52449 3.41376
                  CHANNELS 3 Zrotation Xrotation Yrotation
                  End Site
                  {
                    OFFSET 1.78271 -1.18214 1.43049
                  }
                }
              }
              JOINT lIndex1
              {
                OFFSET 7.75947 0.938293 5.60832
                CHANNELS 3 Zrotation Xrotation Yrotation
                JOINT lIndex2
                {
                  OFFSET 2.54057 -0.884171 1.56538
                  CHANNELS 3 Zrotation Xrotation Yrotation
                  End Site
                  {
                    OFFSET 1.62519 -0.234802 1.16502
                  }
                }
              }
              JOINT lMid1
              {
                OFFSET 8.24714 1.18213 3.41376
                CHANNELS 3 Zrotation Xrotation Yrotation
                JOINT lMid2
                {
                  OFFSET 3.10165 -0.590103 1.0647
                  CHANNELS 3 Zrotation Xrotation Yrotation
                  End Site
                  {
                    OFFSET 2.48547 -0.328903 0.83742
                  }
                }
              }
              JOINT lRing1
              {
                OFFSET 8.82822 0.546677 1.51678
                CHANNELS 3 Zrotation Xrotation Yrotation
                JOINT lRing2
                {
                  OFFSET 2.60934 -0.819778 -0.0198488
                  CHANNELS 3 Zrotation Xrotation Yrotation
                  End Site
                  {
                    OFFSET 2.33842 -0.294052 0.168128
                  }
                }
              }
              JOINT lPinky1
              {
                OFFSET 8.27202 -0.0477905 -0.4584
                CHANNELS 3 Zrotation Xrotation Yrotation
                JOINT lPinky2
                {
                  OFFSET 1.82734 -0.647385 -0.700984
                  CHANNELS 3 Zrotation Xrotation Yrotation
                  End Site
                  {
                    OFFSET 1.69225 -0.51767 -0.607171
                  }
                }
              }
            }
          }
        }
      }
    }
  }
  JOINT rButtock
  {
    OFFSET -8.77824 4.35084 1.2192
    CHANNELS 3 Zrotation Xrotation Yrotation
    JOINT rThigh
    {
      OFFSET 0 -1.70687 -2.19456
      CHANNELS 3 Zrotation Xrotation Yrotation
      JOINT rShin
      {
        OFFSET 0 -36.8199 0.73152
        CHANNELS 3 Zrotation Xrotation Yrotation
        JOINT rFoot
        {
          OFFSET 0.73152 -45.1104 -5.12064
          CHANNELS 3 Zrotation Xrotation Yrotation
          End Site
          {
            OFFSET -1.1221 -3.69964 12.103
          }
        }
      }
    }
  }
  JOINT lButtock
  {
    OFFSET 8.77824 4.35084 1.2192
    CHANNELS 3 Zrotation Xrotation Yrotation
    JOINT lThigh
    {
      OFFSET 0 -1.70687 -2.19456
      CHANNELS 3 Zrotation Xrotation Yrotation
      JOINT lShin
      {
        OFFSET 0 -36.8199 0.73152
        CHANNELS 3 Zrotation Xrotation Yrotation
        JOINT lFoot
        {
          OFFSET -0.73152 -45.1104 -5.12064
          CHANNELS 3 Zrotation Xrotation Yrotation
          End Site
          {
            OFFSET 1.1221 -3.69964 12.103
          }
        }
      }
    }
  }
}
MOTION
Frames:	4
Frame Time:	0.00833333
6.4372 82.3713 3.34295 176.47 86.9028 -171.166 -4.05484 -19.4794 -2.89206 -0.526695 -2.08132 -0.567818 -5.6768 2.57508 -3.31936 13.7899 7.23259 -4.96279 -0.0 0.0 0.0 -0.0 0.0 0.0 8.18343e-15 4.23468e-12 6.45553e-14 18.5489 63.6807 18.0395 -26.6385 -44.9189 93.2948 -0.00130151 -1.03008 -0.144783 -4.64934e-10 6.76882e-10 2.11367e-09 -8.11193e-10 1.17566e-09 3.66013e-09 -4.64936e-10 6.76884e-10 2.11366e-09 7.73091 5.47488 0.417314 -4.64937e-10 6.76885e-10 2.11367e-09 2.90554 0.965183 0.102902 -4.64932e-10 6.76885e-10 2.11368e-09 10.2786 0.731801 0.0259123 -4.64939e-10 6.76888e-10 2.11368e-09 2.22167 -0.733487 -0.20892 8.11745e-15 4.23468e-12 6.44062e-14 -8.89675 59.2751 -15.9518 24.8175 -48.268 -100.584 2.2233 -38.3588 6.38604 -1.34185e-09 1.81034e-10 -1.48814e-09 -2.27158e-09 4.0214e-10 -2.6133e-09 -1.34185e-09 1.81043e-10 -1.48812e-09 -7.73091 5.47488 -0.417314 -1.34185e-09 1.81036e-10 -1.48814e-09 -2.90554 0.965183 -0.102902 -1.34186e-09 1.81034e-10 -1.48813e-09 -10.2786 0.731801 -0.0259123 -1.34185e-09 1.81035e-10 -1.48814e-09 -2.22167 -0.733487 0.20892 -2.03217e-16 0.0 -3.88251e-19 -1.62096 -10.1689 9.64746 -0.0591586 10.8492 0.455278 -7.06117 -10.1185 -23.6187 2.03217e-16 0.0 3.88251e-19 -0.928845 -10.5997 -23.0915 0.00343301 10.6788 -0.112666 4.77974 -10.7764 25.7806
6.4029 82.3619 3.35148 175.949 86.9372 -171.68 -4.09053 -19.4449 -2.94726 -0.469913 -2.04114 -0.582975 -5.66402 2.50455 -3.29628 13.6962 7.25735 -4.9173 -0.0 0.0 0.0 -0.0 0.0 0.0 7.98287e-15 3.18701e-12 4.93817e-14 17.096 64.1172 20.0328 -26.6602 -44.8668 93.19 -0.00115924 -0.977199 -0.13735 -4.86857e-10 8.90738e-10 1.94417e-09 -8.48384e-10 1.54522e-09 3.36657e-09 -4.86859e-10 8.9074e-10 1.94416e-09 7.73091 5.47488 0.417314 -4.8686e-10 8.90741e-10 1.94417e-09 2.90554 0.965183 0.102902 -4.86855e-10 8.90741e-10 1.94418e-09 10.2786 0.731801 0.0259123 -4.86862e-10 8.90744e-10 1.94418e-09 2.22167 -0.733487 -0.20892 7.90933e-15 3.18387e-12 4.90955e-14 -8.14405 59.9957 -17.4662 24.8268 -48.254 -100.552 2.17991 -38.052 6.31582 -1.23437e-09 1.68951e-10 -1.3645e-09 -2.08967e-09 3.76028e-10 -2.39669e-09 -1.23437e-09 1.68959e-10 -1.36448e-09 -7.73091 5.47488 -0.417314 -1.23437e-09 1.68951e-10 -1.36449e-09 -2.90554 0.965183 -0.102902 -1.23438e-09 1.68949e-10 -1.36449e-09 -10.2786 0.731801 -0.0259123 -1.23437e-09 1.6895e-10 -1.3645e-09 -2.22167 -0.733487 0.20892 -2.03217e-16 0.0 -3.88251e-19 -1.6132 -10.1837 9.65474 -0.0589634 10.8978 0.455994 -7.05646 -10.1169 -23.6076 2.03217e-16 0.0 3.88251e-19 -0.924804 -10.5826 -23.0702 0.00339464 10.6849 -0.113155 4.77683 -10.7742 25.7786
6.3797 82.3564 3.35476 175.14 86.9635 -172.535 -4.12856 -19.4089 -2.99768 -0.422687 -2.01774 -0.596597 -5.64716 2.46883 -3.27581 13.5973 7.25841 -4.87662 -0.0 0.0 0.0 -0.0 0.0 0.0 6.10159e-15 1.01374e-12 1.77726e-14 15.6091 64.5802 22.0254 -26.6712 -44.841 93.1373 -0.000977112 -0.900685 -0.126593 -5.50453e-10 1.24891e-09 1.65582e-09 -9.56804e-10 2.16339e-09 2.86674e-09 -5.50454e-10 1.24891e-09 1.65581e-09 7.73091 5.47488 0.417314 -5.50455e-10 1.24891e-09 1.65582e-09 2.90554 0.965183 0.102902 -5.50449e-10 1.24891e-09 1.65583e-09 10.2786 0.731801 0.0259123 -5.50457e-10 1.24892e-09 1.65583e-09 2.22167 -0.733487 -0.20892 6.01069e-15 1.00589e-12 1.72663e-14 -7.31764 60.6197 -18.9972 24.8537 -48.2138 -100.458 2.13806 -37.7517 6.24765 -9.94038e-10 1.35708e-10 -1.09199e-09 -1.68265e-09 3.05093e-10 -1.9189e-09 -9.94038e-10 1.35713e-10 -1.09197e-09 -7.73091 5.47488 -0.417314 -9.94039e-10 1.35705e-10 -1.09198e-09 -2.90554 0.965183 -0.102902 -9.94048e-10 1.35702e-10 -1.09198e-09 -10.2786 0.731801 -0.0259123 -9.94035e-10 1.35704e-10 -1.09199e-09 -2.22167 -0.733487 0.20892 -2.03217e-16 0.0 -3.88251e-19 -1.60653 -10.1958 9.65887 -0.0584922 10.9497 0.456669 -7.0537 -10.1048 -23.6164 2.03217e-16 0.0 3.88251e-19 -0.926034 -10.567 -23.0638 0.0033834 10.6917 -0.113432 4.77993 -10.7856 25.7744
6.35929 82.3522 3.36319 175.272 86.9538 -172.464 -4.15881 -19.3727 -3.04559 -0.384973 -2.00822 -0.609756 -5.62711 2.44715 -3.25826 13.5003 7.25586 -4.84239 -0.0 0.0 0.0 -0.0 0.0 0.0 3.37999e-15 -1.11622e-12 -1.35787e-14 14.1033 65.0178 23.9942 -26.6764 -44.8297 93.1132 -0.000833653 -0.829426 -0.116576 -5.57291e-10 1.44556e-09 1.25969e-09 -9.6677e-10 2.50206e-09 2.18047e-09 -5.57291e-10 1.44556e-09 1.25967e-09 7.73091 5.47488 0.417314 -5.57294e-10 1.44556e-09 1.25969e-09 2.90554 0.965183 0.102902 -5.57287e-10 1.44556e-09 1.25969e-09 10.2786 0.731801 0.0259123 -5.57294e-10 1.44556e-09 1.25969e-09 2.22167 -0.733487 -0.20892 3.27545e-15 -1.12804e-12 -1.4288e-14 -6.44756 61.1441 -20.5006 24.8914 -48.1571 -100.327 2.09599 -37.4456 6.17871 -6.88059e-10 8.75064e-11 -7.43748e-10 -1.16461e-09 2.0313e-10 -1.30826e-09 -6.88059e-10 8.75102e-11 -7.43728e-10 -7.73091 5.47488 -0.417314 -6.88059e-10 8.7503e-11 -7.43745e-10 -2.90554 0.965183 -0.102902 -6.8807e-10 8.74987e-11 -7.43742e-10 -10.2786 0.731801 -0.0259123 -6.88054e-10 8.75014e-11 -7.4375e-10 -2.22167 -0.733487 0.20892 -2.03217e-16 0.0 -3.88251e-19 -1.5962 -10.2004 9.65966 -0.0582667 10.9896 0.45696 -7.04878 -10.083 -23.6305 2.03217e-16 0.0 3.88251e-19 -0.923509 -10.5524 -23.064 0.00338197 10.6973 -0.113593 4.78376 -10.798 25.7697
